<?xml version="1.0" standalone="no"?>
<!DOCTYPE svg PUBLIC "-//W3C//DTD SVG 20010904//EN"
 "http://www.w3.org/TR/2001/REC-SVG-20010904/DTD/svg10.dtd">
<svg version="1.0" xmlns="http://www.w3.org/2000/svg"
 width="512.000000pt" height="512.000000pt" viewBox="0 0 512.000000 512.000000"
 preserveAspectRatio="xMidYMid meet">

<g transform="translate(0.000000,512.000000) scale(0.100000,-0.100000)"
fill="#000000" stroke="none">
<path d="M1225 5025 c-27 -26 -31 -51 -15 -87 8 -15 347 -229 1033 -648 562
-344 1067 -655 1122 -691 115 -77 245 -206 318 -316 138 -207 209 -467 193
-702 -4 -64 -84 -485 -240 -1266 -254 -1269 -244 -1201 -184 -1234 24 -14 30
-14 62 2 21 9 38 26 41 39 3 13 109 541 236 1173 l231 1150 5 160 c4 122 1
183 -11 255 -20 110 -71 271 -117 362 -86 171 -235 351 -384 462 -38 29 -495
313 -1015 631 -1238 758 -1200 735 -1227 735 -13 0 -35 -11 -48 -25z"/>
<path d="M1040 4470 c-26 -26 -27 -83 -1 -107 32 -29 1389 -883 1440 -906 32
-14 73 -22 136 -25 77 -3 102 0 169 22 88 29 108 31 157 15 102 -35 157 -135
129 -238 -8 -31 -31 -64 -80 -116 -71 -75 -109 -139 -130 -215 -16 -59 -80
-124 -139 -140 -79 -21 -180 21 -216 89 -8 16 -22 59 -31 97 -33 139 -114 270
-214 348 -41 31 -1211 775 -1322 840 -51 30 -84 28 -114 -5 -22 -24 -22 -73
-1 -97 9 -10 312 -205 673 -433 439 -277 672 -430 705 -463 58 -58 102 -144
125 -241 29 -130 92 -212 203 -264 48 -22 70 -26 146 -26 106 0 157 19 230 86
55 51 86 102 111 183 15 47 33 75 90 137 103 112 119 150 119 274 0 118 -21
171 -95 245 -66 67 -128 93 -227 98 -69 3 -94 0 -162 -23 -90 -31 -152 -30
-213 1 -18 9 -342 212 -720 450 -723 458 -724 458 -768 414z"/>
<path d="M358 3765 c-31 -17 -44 -52 -34 -90 4 -14 49 -68 101 -119 345 -345
926 -720 1536 -990 l107 -48 -48 -101 c-66 -139 -115 -286 -141 -419 -17 -92
-20 -135 -16 -242 3 -72 11 -167 17 -211 28 -192 -26 -555 -146 -977 -54 -191
-56 -199 -40 -223 33 -51 98 -52 130 -3 36 56 157 534 191 758 27 174 31 399
10 551 -16 112 -16 144 -6 228 22 184 76 345 182 550 32 63 59 123 59 132 0
35 -47 67 -170 119 -606 256 -1212 641 -1566 997 -50 51 -102 94 -115 97 -13
3 -36 -1 -51 -9z"/>
<path d="M4448 3746 c-46 -24 -352 -277 -366 -303 -26 -47 11 -103 67 -103 32
0 59 18 213 143 207 166 223 189 176 241 -30 32 -57 39 -90 22z"/>
<path d="M4451 3260 c-112 -38 -212 -77 -222 -86 -40 -36 -20 -108 35 -128 25
-9 443 130 474 157 46 42 11 128 -51 126 -18 0 -124 -32 -236 -69z"/>
<path d="M3336 2988 c-21 -4 -52 -18 -68 -30 -31 -21 -170 -225 -195 -285 -42
-102 21 -223 132 -252 44 -11 310 -28 365 -23 103 10 181 112 165 218 -6 45
-28 78 -184 277 -64 83 -131 113 -215 95z m152 -268 c50 -65 92 -128 92 -139
0 -30 -28 -33 -193 -21 -164 12 -188 21 -165 63 44 84 140 217 156 217 10 0
53 -46 110 -120z"/>
<path d="M4256 2849 c-32 -25 -36 -79 -7 -108 24 -24 30 -25 289 -52 187 -19
204 -20 227 -5 44 29 46 104 2 128 -19 10 -383 56 -458 58 -15 0 -38 -9 -53
-21z"/>
<path d="M2622 2459 c-62 -12 -138 -57 -183 -107 -103 -118 -106 -292 -6 -429
53 -73 75 -125 88 -200 10 -65 6 -92 -85 -634 -53 -312 -96 -576 -96 -588 0
-30 43 -71 74 -71 14 0 36 10 50 22 25 22 31 52 121 584 61 360 95 589 95 636
0 122 -39 236 -116 337 -61 79 -66 149 -17 224 28 44 89 76 144 77 20 0 66
-14 102 -30 35 -17 89 -33 118 -37 73 -8 89 -18 197 -120 120 -115 121 -125
21 -226 -39 -40 -89 -98 -111 -131 -52 -75 -112 -204 -132 -281 -20 -79 -176
-1002 -176 -1042 0 -37 38 -73 77 -73 23 0 73 40 73 58 0 24 163 965 176 1015
34 133 97 238 210 352 85 84 106 125 107 206 0 88 -27 133 -155 249 -128 117
-148 129 -235 141 -35 5 -85 20 -111 33 -46 23 -137 47 -170 45 -9 -1 -36 -5
-60 -10z"/>
</g>
</svg>
