<?xml version="1.0" standalone="no"?>
<!DOCTYPE svg PUBLIC "-//W3C//DTD SVG 20010904//EN"
 "http://www.w3.org/TR/2001/REC-SVG-20010904/DTD/svg10.dtd">
<svg version="1.0" xmlns="http://www.w3.org/2000/svg"
 width="512.000000pt" height="512.000000pt" viewBox="0 0 512.000000 512.000000"
 preserveAspectRatio="xMidYMid meet">

<g transform="translate(0.000000,512.000000) scale(0.100000,-0.100000)"
fill="#000000" stroke="none">
<path d="M2837 5028 c-9 -7 -111 -146 -227 -308 l-210 -295 0 -110 0 -110 263
-262 262 -263 151 0 c117 0 155 3 170 15 10 8 22 15 25 15 4 0 43 -49 88 -109
l81 -108 0 -562 c0 -531 -1 -562 -17 -557 -88 27 -311 33 -453 11 -215 -32
-438 -125 -606 -252 l-91 -69 -95 91 c-252 243 -577 383 -932 402 -478 25
-910 -186 -1130 -551 l-36 -60 0 -908 0 -909 26 -26 26 -26 243 6 c713 20
1258 116 1621 287 55 26 117 58 138 72 l37 26 109 -43 c321 -127 695 -196 987
-181 381 19 680 88 948 220 252 124 420 261 572 466 60 80 99 150 148 266 24
56 58 130 75 163 29 59 30 65 30 197 l0 137 -525 1536 c-289 845 -532 1542
-540 1550 -13 13 -1056 260 -1101 261 -11 0 -28 -6 -37 -12z m572 -272 c289
-67 446 -107 451 -117 5 -8 236 -680 515 -1494 l506 -1480 -4 -110 -3 -110
-66 -148 c-89 -197 -157 -299 -282 -422 -293 -291 -717 -447 -1274 -471 -286
-12 -619 52 -944 182 -75 29 -145 54 -156 54 -10 0 -37 -14 -58 -31 -129 -102
-386 -198 -709 -264 -276 -56 -574 -87 -957 -101 l-188 -7 0 835 0 836 42 62
c90 135 247 262 408 330 376 161 818 123 1170 -99 102 -64 228 -167 267 -218
l26 -34 -67 -68 -67 -68 60 -52 61 -53 82 84 c251 253 444 368 710 424 103 22
343 25 439 6 l66 -14 6 -67 c3 -37 13 -87 23 -111 23 -58 223 -391 232 -387 4
2 35 21 69 41 l61 38 -100 166 c-55 92 -107 184 -114 206 -11 31 -14 171 -14
745 l0 707 -107 143 -106 142 91 92 c51 51 92 97 92 102 0 13 -92 105 -105
105 -6 0 -75 -65 -155 -145 l-145 -145 -85 0 -85 0 -217 217 -218 218 0 50 c0
49 4 56 177 298 165 230 179 247 203 242 14 -3 225 -52 469 -109z"/>
<path d="M4356 1326 c-75 -98 -253 -268 -349 -334 -99 -69 -239 -135 -347
-164 -76 -20 -106 -23 -280 -22 -227 0 -378 20 -514 65 -92 31 -188 82 -221
119 -10 11 -23 20 -29 20 -20 0 -109 -97 -103 -112 8 -23 107 -94 184 -132 85
-43 218 -80 368 -103 142 -22 493 -24 580 -4 342 78 629 285 897 647 7 9 -58
56 -123 90 -4 2 -32 -30 -63 -70z"/>
<path d="M480 880 l-52 -60 27 -23 c98 -80 279 -170 417 -206 327 -85 682 -15
971 192 l48 34 -47 59 c-26 32 -49 60 -50 62 -1 2 -32 -18 -69 -43 -175 -119
-361 -176 -575 -176 -208 0 -388 57 -557 177 l-61 44 -52 -60z"/>
</g>
</svg>
