<?xml version="1.0" standalone="no"?>
<!DOCTYPE svg PUBLIC "-//W3C//DTD SVG 20010904//EN"
 "http://www.w3.org/TR/2001/REC-SVG-20010904/DTD/svg10.dtd">
<svg version="1.0" xmlns="http://www.w3.org/2000/svg"
 width="512.000000pt" height="512.000000pt" viewBox="0 0 512.000000 512.000000"
 preserveAspectRatio="xMidYMid meet">

<g transform="translate(0.000000,512.000000) scale(0.100000,-0.100000)"
fill="#000000" stroke="none">
<path d="M2021 4724 c-18 -23 -21 -41 -21 -124 l0 -97 -107 -6 c-227 -13 -445
-102 -608 -249 l-50 -45 -165 -6 c-170 -6 -224 -15 -352 -63 -147 -55 -316
-197 -379 -316 -24 -47 -24 -69 2 -102 16 -20 29 -26 59 -26 36 0 42 4 97 78
144 191 343 276 638 271 77 -1 146 -1 153 0 8 0 44 30 80 64 111 106 210 163
364 208 60 18 100 22 224 23 203 1 198 -2 202 145 l4 111 399 0 399 0 0 -105
c0 -99 2 -108 24 -130 24 -24 27 -25 143 -19 244 13 457 -67 630 -236 35 -33
68 -61 75 -61 7 -1 76 -1 153 0 295 5 494 -80 638 -271 53 -71 62 -78 93 -78
40 0 84 37 84 70 0 91 -193 283 -358 357 -125 56 -216 75 -392 80 l-165 6 -50
45 c-175 157 -419 252 -646 252 l-69 0 0 99 c0 84 -3 102 -21 125 l-20 26
-519 0 -519 0 -20 -26z"/>
<path d="M2193 3465 c-12 -9 -30 -43 -43 -82 -90 -277 -320 -484 -600 -538
-70 -14 -102 -79 -65 -132 23 -32 58 -35 148 -12 310 79 560 310 663 613 30
88 30 111 -1 141 -28 29 -70 32 -102 10z"/>
<path d="M2825 3455 c-31 -30 -31 -53 -1 -141 67 -196 196 -366 369 -483 114
-77 343 -160 402 -145 55 14 74 93 33 131 -13 12 -47 26 -77 32 -267 56 -494
265 -581 534 -13 39 -31 73 -43 82 -32 22 -74 19 -102 -10z"/>
<path d="M2505 2815 l-25 -24 0 -303 c1 -222 4 -307 13 -319 34 -44 89 -47
127 -7 19 21 20 34 20 325 l0 304 -25 24 c-15 16 -36 25 -55 25 -19 0 -40 -9
-55 -25z"/>
<path d="M874 2279 c-11 -6 -28 -23 -37 -39 -49 -82 -223 -166 -412 -199 -96
-17 -135 -82 -80 -136 17 -18 35 -25 63 -25 69 0 234 48 338 99 l102 49 7 -46
c26 -183 115 -460 217 -672 l69 -145 60 -375 c51 -318 64 -378 81 -397 l21
-23 1257 0 1257 0 20 22 c18 19 31 83 82 401 l61 377 51 102 c100 199 186 453
225 659 l18 96 100 -48 c104 -51 269 -99 338 -99 28 0 46 7 63 25 55 54 16
119 -80 136 -178 31 -309 91 -400 185 -35 35 -70 64 -79 64 -36 0 -64 -22 -99
-78 -66 -107 -154 -160 -284 -172 -122 -11 -125 -15 -127 -171 -1 -117 -3
-128 -33 -191 -21 -44 -57 -94 -102 -142 -59 -63 -71 -81 -71 -109 0 -44 34
-77 80 -77 30 0 45 11 111 78 114 116 179 260 179 394 l0 55 53 12 c29 6 81
25 116 41 52 25 61 27 57 12 -3 -9 -12 -46 -21 -82 -46 -184 -127 -404 -209
-568 -43 -86 -44 -92 -97 -424 l-54 -338 -537 0 -538 0 0 244 c0 242 0 245
-23 272 -17 20 -33 27 -57 27 -24 0 -40 -7 -57 -27 -23 -27 -23 -30 -23 -272
l0 -244 -538 0 -538 0 -53 338 -54 337 -47 95 c-82 165 -158 371 -205 560 -9
36 -18 73 -21 82 -4 15 5 13 57 -12 35 -16 87 -35 116 -41 l53 -12 0 -55 c0
-134 65 -278 179 -394 68 -70 81 -78 114 -78 48 0 77 28 77 76 0 30 -10 46
-71 110 -45 48 -81 98 -102 142 -30 63 -32 74 -33 191 -2 155 -6 160 -122 171
-138 14 -217 61 -287 170 -52 81 -78 94 -131 69z"/>
<path d="M2505 1935 l-25 -24 0 -306 0 -306 25 -24 c32 -33 78 -33 110 0 l25
24 0 306 0 306 -25 24 c-15 16 -36 25 -55 25 -19 0 -40 -9 -55 -25z"/>
</g>
</svg>
