<?xml version="1.0" standalone="no"?>
<!DOCTYPE svg PUBLIC "-//W3C//DTD SVG 20010904//EN"
 "http://www.w3.org/TR/2001/REC-SVG-20010904/DTD/svg10.dtd">
<svg version="1.0" xmlns="http://www.w3.org/2000/svg"
 width="512.000000pt" height="512.000000pt" viewBox="0 0 512.000000 512.000000"
 preserveAspectRatio="xMidYMid meet">

<g transform="translate(0.000000,512.000000) scale(0.100000,-0.100000)"
fill="#000000" stroke="none">
<path d="M2193 4430 c-53 -32 -66 -64 -104 -254 l-35 -181 -650 -6 c-622 -5
-652 -6 -731 -27 -159 -42 -283 -111 -402 -226 -116 -113 -188 -230 -238 -393
l-27 -88 -4 -472 c-4 -513 -1 -544 53 -640 l24 -43 -24 -48 c-54 -104 -55
-121 -55 -727 0 -538 1 -561 20 -592 38 -63 38 -63 470 -63 430 0 439 1 473
59 14 24 17 56 17 180 0 138 -2 153 -20 171 -30 30 -83 27 -109 -6 -18 -23
-21 -41 -21 -140 l0 -114 -340 0 -341 0 3 548 3 547 28 55 c15 30 38 72 50 92
l22 38 -22 37 c-12 21 -34 61 -50 88 l-28 50 -3 435 c-2 297 0 459 8 510 43
278 248 506 530 591 74 23 85 23 704 27 l629 3 -7 -33 c-4 -18 -10 -57 -13
-86 -5 -46 -3 -56 17 -77 35 -37 98 -30 115 12 4 10 35 158 69 328 l61 310
295 0 295 0 61 -311 c34 -170 66 -319 72 -331 22 -40 78 -45 112 -8 20 21 22
31 17 77 -3 29 -9 68 -13 86 l-6 32 264 0 c300 0 308 2 308 69 0 26 -7 44 -21
57 -19 17 -44 19 -302 24 l-281 5 -35 181 c-38 190 -51 222 -104 254 -30 19
-53 20 -367 20 -314 0 -337 -1 -367 -20z"/>
<path d="M3930 3984 c-34 -15 -50 -38 -50 -75 0 -63 13 -66 260 -72 180 -4
227 -9 290 -27 278 -80 486 -312 530 -590 8 -51 10 -211 8 -505 l-3 -430 -28
-55 c-15 -30 -38 -72 -50 -92 l-22 -38 22 -37 c12 -21 35 -63 50 -93 l28 -55
3 -547 3 -548 -341 0 -340 0 0 783 c0 430 -3 792 -6 805 -6 22 -6 22 107 22
128 0 172 16 186 67 10 36 10 260 0 296 -14 50 -58 67 -179 67 l-108 0 0 154
0 155 -26 20 c-33 26 -65 27 -95 2 -23 -18 -24 -25 -27 -175 l-3 -156 -95 0
-94 0 0 76 c0 73 -1 77 -34 110 -61 61 -74 56 -323 -127 -254 -187 -293 -223
-293 -272 0 -19 9 -45 20 -59 10 -14 124 -103 251 -199 219 -164 235 -174 277
-174 37 0 48 5 73 33 27 30 29 39 29 107 l0 75 90 0 c50 0 90 -4 90 -8 0 -27
-37 -128 -72 -194 -100 -194 -315 -342 -527 -364 -78 -9 -111 -32 -111 -80 0
-47 29 -74 80 -74 63 0 188 29 264 61 39 16 71 27 73 25 2 -2 -54 -221 -125
-487 l-128 -484 -472 -3 -472 -2 0 327 c0 181 -4 343 -10 362 -23 82 -117 82
-140 0 -6 -19 -10 -181 -10 -362 l0 -327 -472 2 -472 3 -128 484 c-71 266
-127 486 -124 488 2 2 22 -5 44 -16 22 -11 73 -30 113 -42 68 -21 100 -23 379
-27 330 -4 369 0 475 47 33 15 106 64 163 109 l102 82 103 -82 c155 -123 244
-158 410 -158 112 0 137 13 137 73 0 58 -26 71 -149 78 -133 7 -184 28 -321
136 l-99 78 -3 497 c-3 497 -3 497 -25 519 -29 29 -77 29 -106 0 -22 -22 -22
-22 -25 -519 l-3 -497 -99 -78 c-54 -42 -124 -90 -157 -105 l-58 -27 -288 -3
c-263 -3 -295 -1 -370 17 -219 55 -404 218 -480 421 -14 36 -28 80 -32 97 l-7
33 91 0 91 0 0 -75 c0 -68 2 -77 29 -107 25 -28 36 -33 73 -33 41 0 58 11 253
155 267 199 295 224 295 275 0 33 -7 45 -48 84 -27 25 -142 115 -256 199 -237
174 -251 179 -312 118 -33 -33 -34 -37 -34 -110 l0 -76 -94 0 -95 0 -3 156
c-3 150 -4 157 -27 175 -30 25 -62 24 -95 -2 l-26 -20 0 -155 0 -154 -107 0
c-122 0 -166 -17 -180 -67 -10 -36 -10 -260 0 -296 14 -51 58 -67 182 -67
l110 0 -3 -533 c-3 -529 -2 -534 18 -560 24 -31 73 -37 106 -13 18 14 19 33
24 375 l5 360 51 -62 51 -62 157 -595 c87 -327 162 -603 168 -613 5 -10 24
-27 41 -37 31 -19 60 -20 1107 -20 1056 0 1076 0 1108 20 18 11 37 30 43 42 5
13 81 292 168 620 l158 597 49 54 49 53 5 -655 c5 -720 2 -686 66 -716 27 -13
96 -15 426 -15 372 0 395 1 425 20 65 39 63 21 63 637 0 603 -1 621 -55 725
l-24 48 24 43 c54 96 57 127 53 640 l-4 472 -27 88 c-97 313 -333 542 -640
618 -65 16 -124 21 -292 25 -115 2 -217 1 -225 -2z m-2436 -1228 c80 -60 145
-110 143 -113 -2 -2 -73 -55 -158 -119 l-154 -115 -5 56 c-5 48 -10 61 -38 86
l-32 29 -280 0 -280 0 0 65 0 64 285 3 285 3 26 27 c21 21 28 39 32 82 3 40 8
54 16 48 7 -4 79 -56 160 -116z m2340 -15 l26 -26 285 -3 285 -3 0 -64 0 -65
-280 0 -280 0 -32 -29 c-28 -25 -33 -38 -38 -86 l-5 -56 -155 116 c-85 64
-154 119 -153 122 1 3 70 57 155 120 l153 114 6 -57 c5 -42 13 -63 33 -83z"/>
<path d="M1106 3569 c-29 -23 -35 -72 -13 -103 9 -13 163 -57 547 -157 294
-76 549 -139 567 -139 22 0 38 8 52 26 27 34 26 57 -1 89 -20 22 -88 42 -562
165 -297 77 -545 140 -552 140 -6 0 -23 -9 -38 -21z"/>
<path d="M3825 3555 c-66 -18 -304 -81 -530 -139 -354 -92 -413 -110 -432
-132 -28 -31 -29 -54 -2 -88 14 -18 30 -26 52 -26 18 0 272 63 566 139 395
102 538 143 548 157 22 31 16 80 -13 103 -34 26 -43 26 -189 -14z"/>
</g>
</svg>
