<?xml version="1.0" standalone="no"?>
<!DOCTYPE svg PUBLIC "-//W3C//DTD SVG 20010904//EN"
 "http://www.w3.org/TR/2001/REC-SVG-20010904/DTD/svg10.dtd">
<svg version="1.0" xmlns="http://www.w3.org/2000/svg"
 width="512.000000pt" height="512.000000pt" viewBox="0 0 512.000000 512.000000"
 preserveAspectRatio="xMidYMid meet">

<g transform="translate(0.000000,512.000000) scale(0.100000,-0.100000)"
fill="#000000" stroke="none">
<path d="M1226 5098 c-34 -52 -186 -831 -231 -1183 -23 -175 -23 -342 -1 -424
18 -66 63 -165 97 -210 15 -21 21 -56 30 -181 l10 -155 -29 -70 c-39 -90 -76
-216 -99 -330 -15 -73 -18 -139 -18 -345 1 -280 3 -302 86 -874 27 -187 49
-356 49 -376 0 -24 -11 -52 -30 -82 -61 -92 -268 -269 -535 -456 l-140 -98 -3
-141 c-2 -119 0 -144 14 -157 14 -15 71 -16 598 -14 578 3 581 3 622 25 86 46
142 126 151 217 7 67 -23 189 -86 359 -77 203 -75 184 -36 498 52 422 80 546
139 629 137 192 169 612 81 1065 -6 31 25 115 310 830 133 336 200 561 270
910 29 147 75 454 75 501 0 31 -2 32 -45 36 -53 4 -47 19 -70 -161 -49 -383
-166 -863 -278 -1141 -178 -440 -367 -928 -367 -945 0 -11 9 -66 20 -122 58
-300 42 -661 -37 -844 -25 -57 -33 -65 -165 -161 -76 -55 -138 -106 -138 -112
0 -7 12 -26 28 -44 l27 -32 59 45 c33 25 61 44 62 42 2 -2 -5 -46 -16 -99 -31
-156 -91 -662 -84 -710 4 -24 31 -109 61 -190 57 -156 93 -283 93 -329 0 -62
-46 -129 -107 -155 -43 -19 -248 -20 -240 -2 3 7 12 30 21 51 16 37 16 37 -9
47 -15 6 -35 15 -46 21 -18 9 -23 3 -51 -60 l-31 -71 -108 0 -109 0 0 47 c0
46 3 50 77 125 l77 78 -34 35 -34 35 -93 -92 -93 -93 0 -67 0 -68 -50 0 -50 0
0 60 0 60 -50 0 -50 0 0 -60 0 -60 -35 0 -35 0 0 60 0 60 -50 0 -50 0 0 -60
c0 -53 -2 -60 -20 -60 -18 0 -20 7 -20 83 l0 82 63 40 c260 166 569 438 622
548 26 54 27 63 21 139 -4 44 -29 232 -56 417 -63 434 -80 604 -80 804 0 208
31 413 81 539 l11 28 20 -25 c42 -54 118 -70 184 -39 40 19 108 92 136 147 11
22 18 40 16 42 -2 1 -21 11 -42 22 l-40 20 -37 -57 c-77 -120 -137 -121 -168
-5 -6 22 -15 116 -21 209 l-10 169 67 88 c37 49 69 89 72 88 3 0 19 -27 34
-60 79 -167 269 -280 376 -224 49 25 115 108 163 208 127 256 268 816 373
1485 36 223 37 234 20 252 -18 19 -35 20 -546 20 l-529 0 -14 -22z m989 -110
c-87 -524 -118 -687 -186 -968 -77 -318 -153 -542 -230 -672 -63 -108 -108
-130 -179 -87 -85 51 -156 149 -186 255 -23 81 -50 106 -87 81 -13 -9 -59 -63
-103 -121 -43 -58 -81 -106 -85 -106 -11 0 -58 114 -70 171 -32 148 24 560
172 1277 l42 202 459 0 459 0 -6 -32z"/>
<path d="M2805 5097 c-13 -21 -12 -43 20 -243 102 -641 243 -1211 364 -1469
78 -166 155 -245 241 -245 103 0 244 108 309 238 17 34 33 62 36 62 2 0 34
-39 70 -87 l66 -87 -6 -96 c-20 -287 -32 -352 -70 -366 -39 -15 -99 33 -151
122 -11 18 -12 18 -52 0 -23 -11 -42 -21 -42 -23 0 -15 45 -86 79 -124 49 -57
94 -79 156 -79 42 0 52 5 86 38 l38 39 14 -36 c21 -53 54 -203 68 -306 16
-123 6 -458 -20 -660 -11 -88 -38 -281 -60 -430 -22 -148 -43 -307 -47 -352
-6 -77 -5 -86 21 -140 53 -109 297 -326 577 -516 l107 -72 1 -82 c0 -76 -2
-83 -20 -83 -18 0 -20 7 -20 60 l0 60 -50 0 -50 0 0 -60 0 -60 -35 0 -35 0 0
60 0 60 -50 0 -50 0 0 -60 0 -60 -50 0 -50 0 0 71 0 70 -90 92 -89 92 -38 -37
-38 -38 78 -78 c74 -75 77 -79 77 -125 l0 -47 -109 0 -108 0 -31 71 c-28 63
-33 69 -51 60 -11 -6 -31 -15 -46 -21 -25 -10 -25 -10 -9 -47 9 -21 18 -44 21
-50 4 -10 -20 -13 -99 -13 -88 0 -111 3 -148 23 -50 25 -86 72 -96 124 -9 48
22 169 86 339 77 205 77 201 35 534 -19 157 -44 328 -54 380 -11 52 -18 96
-17 97 1 2 30 -17 63 -42 l61 -44 26 34 c14 18 26 38 26 44 0 5 -61 54 -135
108 -118 85 -139 104 -160 148 -81 166 -103 536 -49 825 33 175 41 137 -114
530 -77 195 -169 427 -205 515 -138 341 -242 756 -301 1192 -12 90 -25 163
-29 163 -4 0 -25 0 -47 0 -38 0 -40 -1 -40 -32 0 -43 34 -276 66 -448 55 -300
176 -729 260 -919 14 -31 95 -234 181 -451 l155 -395 -16 -85 c-28 -150 -36
-241 -36 -411 0 -173 9 -266 36 -384 20 -84 64 -185 99 -226 49 -59 84 -225
135 -643 17 -141 28 -265 24 -285 -4 -20 -29 -94 -56 -166 -54 -139 -98 -297
-98 -349 0 -96 66 -202 155 -249 40 -22 47 -22 621 -25 523 -2 584 -1 598 13
13 14 16 41 16 154 0 161 13 139 -150 249 -245 166 -499 387 -545 474 -18 35
-18 41 -3 165 9 70 35 252 57 403 54 367 71 548 71 758 0 261 -30 430 -116
644 l-35 87 11 151 c10 147 11 152 46 206 76 119 111 269 99 428 -23 309 -209
1320 -251 1368 -16 17 -46 18 -545 18 l-529 0 -15 -23z m1015 -82 c0 -3 34
-173 75 -378 134 -673 169 -971 130 -1120 -16 -61 -53 -147 -64 -147 -3 0 -44
50 -91 111 -46 61 -92 115 -103 120 -30 17 -61 -11 -75 -68 -30 -116 -94 -209
-181 -265 -63 -40 -95 -37 -143 12 -148 156 -301 718 -464 1708 l-5 32 461 0
c253 0 460 -2 460 -5z"/>
</g>
</svg>
