<?xml version="1.0" standalone="no"?>
<!DOCTYPE svg PUBLIC "-//W3C//DTD SVG 20010904//EN"
 "http://www.w3.org/TR/2001/REC-SVG-20010904/DTD/svg10.dtd">
<svg version="1.0" xmlns="http://www.w3.org/2000/svg"
 width="512.000000pt" height="512.000000pt" viewBox="0 0 512.000000 512.000000"
 preserveAspectRatio="xMidYMid meet">

<g transform="translate(0.000000,512.000000) scale(0.100000,-0.100000)"
fill="#000000" stroke="none">
<path d="M2913 5109 c-414 -53 -762 -360 -868 -764 -31 -118 -37 -236 -32
-591 3 -265 8 -365 20 -415 25 -108 80 -242 138 -335 65 -104 198 -243 292
-304 l67 -44 0 -134 c0 -187 -22 -221 -150 -230 l-66 -4 -43 88 c-158 319
-567 440 -869 256 -255 -154 -370 -467 -271 -739 11 -32 23 -65 26 -74 2 -9
-12 -43 -33 -75 -75 -117 -133 -285 -154 -447 -7 -53 -10 -291 -8 -659 l3
-578 28 -27 27 -28 2021 0 2021 0 29 33 29 32 0 583 c0 632 -5 703 -55 855
-56 167 -137 302 -255 426 -147 155 -338 270 -535 322 -92 25 -121 27 -370 33
-237 5 -273 8 -297 24 -47 32 -58 72 -58 214 l0 128 58 37 c147 95 275 243
357 412 94 195 98 220 103 666 4 415 -1 486 -45 625 -150 474 -621 778 -1110
714z m351 -224 c307 -89 526 -326 590 -637 22 -106 23 -739 2 -850 -87 -448
-521 -747 -961 -663 -324 62 -567 288 -657 610 -21 76 -22 98 -23 465 0 418 2
440 57 583 83 218 287 409 511 481 45 15 109 31 142 36 95 14 241 3 339 -25z
m-282 -2362 c99 -6 245 8 324 32 l42 12 4 -116 c4 -93 9 -125 27 -162 35 -74
85 -125 159 -161 l66 -33 276 -6 c151 -4 286 -10 300 -14 156 -44 261 -92 360
-166 168 -123 291 -304 351 -514 22 -78 23 -94 26 -637 l4 -558 -295 0 -296 0
0 490 0 490 -29 32 c-24 27 -36 33 -71 33 -35 0 -47 -6 -71 -33 l-29 -32 0
-490 0 -490 -1090 0 -1090 0 0 495 0 496 -24 24 c-47 47 -112 43 -150 -9 -20
-27 -21 -40 -24 -517 l-3 -489 -294 0 -295 0 0 504 c0 307 4 535 11 582 13 97
52 221 91 296 l30 57 52 -38 c189 -142 439 -165 648 -60 188 93 320 281 343
486 l7 60 71 7 c129 12 232 79 284 184 25 50 28 70 32 173 l3 116 77 -19 c42
-10 120 -21 173 -25z m-1115 -31 c291 -111 365 -493 136 -702 -252 -230 -655
-87 -703 250 -29 207 103 406 310 466 62 18 192 11 257 -14z"/>
<path d="M1657 2265 c-74 -26 -117 -88 -117 -170 0 -53 16 -88 57 -127 128
-122 338 3 292 174 -14 53 -72 112 -124 127 -50 14 -61 13 -108 -4z"/>
<path d="M1163 3775 c-58 -25 -63 -49 -53 -256 5 -101 10 -199 10 -217 0 -23
9 -42 29 -63 38 -38 82 -38 165 0 l63 29 7 -76 c3 -41 6 -99 6 -129 0 -47 4
-59 29 -84 55 -55 153 -29 166 44 3 18 2 124 -2 236 l-8 203 -33 29 c-41 37
-72 37 -155 -1 -37 -16 -68 -30 -70 -30 -2 0 -7 56 -10 124 -7 141 -16 169
-62 191 -39 18 -41 18 -82 0z"/>
<path d="M327 3295 c-42 -43 -40 -67 18 -220 106 -276 108 -278 147 -298 50
-25 82 -14 151 51 31 30 59 53 61 51 1 -2 22 -54 46 -116 24 -63 53 -122 67
-135 33 -31 93 -31 127 1 48 45 45 65 -40 288 -68 179 -82 208 -108 225 -42
26 -90 17 -135 -24 -20 -19 -48 -43 -62 -56 l-25 -22 -48 120 c-53 133 -76
160 -136 160 -27 0 -45 -7 -63 -25z"/>
<path d="M379 2251 c-27 -28 -29 -34 -29 -110 0 -45 -3 -81 -7 -81 -5 0 -54
18 -111 40 -120 47 -159 50 -199 16 -23 -20 -28 -32 -28 -69 0 -30 6 -52 18
-65 25 -27 388 -172 430 -172 66 1 97 48 97 149 0 39 2 71 5 71 2 0 54 -20
115 -46 100 -40 115 -44 145 -34 66 22 92 89 57 146 -17 26 -49 42 -208 107
-106 44 -204 77 -222 77 -24 0 -42 -9 -63 -29z"/>
</g>
</svg>
